# This file uses centimeters as units for non-parametric coordinates.

mtllib stairs_shell_small.mtl
g stairs_shell:default1
v 0.707107 4.500000 2.949747
v 2.121320 4.500000 2.949747
v 1.414214 4.500000 2.242641
v 1.414214 3.500000 2.242641
v 2.828427 3.500000 2.242641
v 2.121320 3.500000 1.535534
v 2.828427 4.500000 2.242641
v 2.121320 4.500000 1.535534
v 2.121320 2.500000 1.535534
v 3.535534 2.500000 1.535534
v 2.828427 2.500000 0.828427
v 3.535534 3.500000 1.535534
v 2.828427 3.500000 0.828427
v 2.828427 1.500000 0.828427
v 3.535534 1.500000 0.121320
v 3.535534 0.500000 0.121320
v -2.121320 4.500000 2.949747
v -0.707107 4.500000 2.949747
v -1.414214 4.500000 2.242641
v -2.828427 4.500000 2.242641
v -2.828427 3.500000 2.242641
v -1.414214 3.500000 2.242641
v -2.121320 3.500000 1.535534
v -2.121320 4.500000 1.535534
v -3.535534 3.500000 1.535534
v -3.535534 2.500000 1.535534
v -2.121320 2.500000 1.535534
v -2.828427 2.500000 0.828427
v -2.828427 3.500000 0.828427
v -2.828427 1.500000 0.828427
v -3.535534 1.500000 0.121320
v -3.535534 0.500000 0.121320
v 0.000000 4.500000 2.242641
v 0.000000 3.500000 2.242641
v -0.707107 3.500000 1.535534
v -0.707107 4.500000 1.535534
v -0.707107 2.500000 1.535534
v -1.414214 2.500000 0.828427
v -1.414214 3.500000 0.828427
v -1.414214 1.500000 0.828427
v -2.121320 1.500000 0.121320
v -2.121320 2.500000 0.121320
v -2.121320 0.500000 0.121320
v -2.828427 0.500000 -0.585786
v -2.828427 1.500000 -0.585786
v 0.707107 3.500000 1.535534
v 0.707107 4.500000 1.535534
v 0.707107 2.500000 1.535534
v 0.000000 2.500000 0.828427
v 0.000000 3.500000 0.828427
v 0.000000 1.500000 0.828427
v -0.707107 1.500000 0.121320
v -0.707107 2.500000 0.121320
v -0.707107 0.500000 0.121320
v -1.414214 0.500000 -0.585786
v -1.414214 1.500000 -0.585786
v 1.414214 2.500000 0.828427
v 1.414214 3.500000 0.828427
v 1.414214 1.500000 0.828427
v 0.707107 1.500000 0.121320
v 0.707107 2.500000 0.121320
v 0.707107 0.500000 0.121320
v 0.000000 0.500000 -0.585786
v 0.000000 1.500000 -0.585786
v 2.121320 1.500000 0.121320
v 2.121320 2.500000 0.121320
v 2.121320 0.500000 0.121320
v 1.414214 0.500000 -0.585786
v 1.414214 1.500000 -0.585786
v 2.828427 0.500000 -0.585786
v 2.828427 1.500000 -0.585786
vt 0.625000 0.000000
vt 0.625000 0.250000
vt 0.375000 0.500000
vt 0.625000 0.500000
vt 0.375000 0.750000
vt 0.625000 0.750000
vt 0.375000 1.000000
vt 0.625000 1.000000
vt 0.875000 0.000000
vt 0.875000 0.250000
vt 0.625000 0.000000
vt 0.625000 0.250000
vt 0.375000 0.500000
vt 0.625000 0.500000
vt 0.375000 0.750000
vt 0.625000 0.750000
vt 0.375000 1.000000
vt 0.625000 1.000000
vt 0.875000 0.000000
vt 0.875000 0.250000
vt 0.625000 0.000000
vt 0.625000 0.250000
vt 0.375000 0.500000
vt 0.625000 0.500000
vt 0.375000 0.750000
vt 0.625000 0.750000
vt 0.375000 1.000000
vt 0.625000 1.000000
vt 0.875000 0.000000
vt 0.875000 0.250000
vt 0.625000 0.000000
vt 0.625000 0.250000
vt 0.375000 0.500000
vt 0.625000 0.500000
vt 0.375000 0.750000
vt 0.625000 0.750000
vt 0.375000 1.000000
vt 0.625000 1.000000
vt 0.875000 0.000000
vt 0.875000 0.250000
vt 0.625000 0.000000
vt 0.625000 0.250000
vt 0.375000 0.500000
vt 0.625000 0.500000
vt 0.375000 0.750000
vt 0.625000 0.750000
vt 0.375000 1.000000
vt 0.625000 1.000000
vt 0.875000 0.000000
vt 0.875000 0.250000
vt 0.625000 0.000000
vt 0.625000 0.250000
vt 0.375000 0.500000
vt 0.625000 0.500000
vt 0.375000 0.750000
vt 0.625000 0.750000
vt 0.375000 1.000000
vt 0.625000 1.000000
vt 0.875000 0.000000
vt 0.875000 0.250000
vt 0.625000 0.000000
vt 0.625000 0.250000
vt 0.375000 0.500000
vt 0.625000 0.500000
vt 0.375000 0.750000
vt 0.625000 0.750000
vt 0.375000 1.000000
vt 0.625000 1.000000
vt 0.875000 0.000000
vt 0.875000 0.250000
vt 0.625000 0.000000
vt 0.625000 0.250000
vt 0.375000 0.500000
vt 0.625000 0.500000
vt 0.375000 0.750000
vt 0.625000 0.750000
vt 0.375000 1.000000
vt 0.625000 1.000000
vt 0.875000 0.000000
vt 0.875000 0.250000
vt 0.625000 0.000000
vt 0.625000 0.250000
vt 0.375000 0.500000
vt 0.625000 0.500000
vt 0.375000 0.750000
vt 0.625000 0.750000
vt 0.375000 1.000000
vt 0.625000 1.000000
vt 0.875000 0.000000
vt 0.875000 0.250000
vt 0.625000 0.000000
vt 0.625000 0.250000
vt 0.375000 0.500000
vt 0.625000 0.500000
vt 0.375000 0.750000
vt 0.625000 0.750000
vt 0.375000 1.000000
vt 0.625000 1.000000
vt 0.875000 0.000000
vt 0.875000 0.250000
vt 0.625000 0.000000
vt 0.625000 0.250000
vt 0.375000 0.500000
vt 0.625000 0.500000
vt 0.375000 0.750000
vt 0.625000 0.750000
vt 0.375000 1.000000
vt 0.625000 1.000000
vt 0.875000 0.000000
vt 0.875000 0.250000
vt 0.625000 0.000000
vt 0.625000 0.250000
vt 0.375000 0.500000
vt 0.625000 0.500000
vt 0.375000 0.750000
vt 0.625000 0.750000
vt 0.375000 1.000000
vt 0.625000 1.000000
vt 0.875000 0.000000
vt 0.875000 0.250000
vt 0.625000 0.000000
vt 0.625000 0.250000
vt 0.375000 0.500000
vt 0.625000 0.500000
vt 0.375000 0.750000
vt 0.625000 0.750000
vt 0.375000 1.000000
vt 0.625000 1.000000
vt 0.875000 0.000000
vt 0.875000 0.250000
vt 0.625000 0.000000
vt 0.625000 0.250000
vt 0.375000 0.500000
vt 0.625000 0.500000
vt 0.375000 0.750000
vt 0.625000 0.750000
vt 0.375000 1.000000
vt 0.625000 1.000000
vt 0.875000 0.000000
vt 0.875000 0.250000
vt 0.625000 0.000000
vt 0.625000 0.250000
vt 0.375000 0.500000
vt 0.625000 0.500000
vt 0.375000 0.750000
vt 0.625000 0.750000
vt 0.375000 1.000000
vt 0.625000 1.000000
vt 0.875000 0.000000
vt 0.875000 0.250000
vt 0.625000 0.000000
vt 0.625000 0.250000
vt 0.375000 0.500000
vt 0.625000 0.500000
vt 0.375000 0.750000
vt 0.625000 0.750000
vt 0.375000 1.000000
vt 0.625000 1.000000
vt 0.875000 0.000000
vt 0.875000 0.250000
vt 0.625000 0.000000
vt 0.625000 0.250000
vt 0.375000 0.500000
vt 0.625000 0.500000
vt 0.375000 0.750000
vt 0.625000 0.750000
vt 0.375000 1.000000
vt 0.625000 1.000000
vt 0.875000 0.000000
vt 0.875000 0.250000
vt 0.625000 0.000000
vt 0.625000 0.250000
vt 0.375000 0.500000
vt 0.625000 0.500000
vt 0.375000 0.750000
vt 0.625000 0.750000
vt 0.375000 1.000000
vt 0.625000 1.000000
vt 0.875000 0.000000
vt 0.875000 0.250000
vn 0.707107 0.000000 -0.707107
vn 0.707107 0.000000 -0.707107
vn 0.707107 0.000000 -0.707107
vn 0.707107 0.000000 -0.707107
vn 0.000000 1.000000 0.000000
vn 0.000000 1.000000 0.000000
vn 0.000000 1.000000 0.000000
vn 0.000000 1.000000 0.000000
vn -0.707107 0.000000 -0.707107
vn -0.707107 0.000000 -0.707107
vn -0.707107 0.000000 -0.707107
vn -0.707107 0.000000 -0.707107
vn 0.707107 0.000000 -0.707107
vn 0.707107 0.000000 -0.707107
vn 0.707107 0.000000 -0.707107
vn 0.707107 0.000000 -0.707107
vn 0.000000 1.000000 0.000000
vn 0.000000 1.000000 0.000000
vn 0.000000 1.000000 0.000000
vn 0.000000 1.000000 0.000000
vn -0.707107 0.000000 -0.707107
vn -0.707107 0.000000 -0.707107
vn -0.707107 0.000000 -0.707107
vn -0.707107 0.000000 -0.707107
vn 0.707107 0.000000 -0.707107
vn 0.707107 0.000000 -0.707107
vn 0.707107 0.000000 -0.707107
vn 0.707107 0.000000 -0.707107
vn 0.000000 1.000000 0.000000
vn 0.000000 1.000000 0.000000
vn 0.000000 1.000000 0.000000
vn 0.000000 1.000000 0.000000
vn -0.707107 0.000000 -0.707107
vn -0.707107 0.000000 -0.707107
vn -0.707107 0.000000 -0.707107
vn -0.707107 0.000000 -0.707107
vn 0.707107 0.000000 -0.707107
vn 0.707107 0.000000 -0.707107
vn 0.707107 0.000000 -0.707107
vn 0.707107 0.000000 -0.707107
vn 0.000000 1.000000 0.000000
vn 0.000000 1.000000 0.000000
vn 0.000000 1.000000 0.000000
vn 0.000000 1.000000 0.000000
vn -0.707107 0.000000 -0.707107
vn -0.707107 0.000000 -0.707107
vn -0.707107 0.000000 -0.707107
vn -0.707107 0.000000 -0.707107
vn 0.707107 0.000000 -0.707107
vn 0.707107 0.000000 -0.707107
vn 0.707107 0.000000 -0.707107
vn 0.707107 0.000000 -0.707107
vn 0.000000 1.000000 0.000000
vn 0.000000 1.000000 0.000000
vn 0.000000 1.000000 0.000000
vn 0.000000 1.000000 0.000000
vn -0.707107 0.000000 -0.707107
vn -0.707107 0.000000 -0.707107
vn -0.707107 0.000000 -0.707107
vn -0.707107 0.000000 -0.707107
vn 0.707107 0.000000 -0.707107
vn 0.707107 0.000000 -0.707107
vn 0.707107 0.000000 -0.707107
vn 0.707107 0.000000 -0.707107
vn 0.000000 1.000000 0.000000
vn 0.000000 1.000000 0.000000
vn 0.000000 1.000000 0.000000
vn 0.000000 1.000000 0.000000
vn -0.707107 0.000000 -0.707107
vn -0.707107 0.000000 -0.707107
vn -0.707107 0.000000 -0.707107
vn -0.707107 0.000000 -0.707107
vn 0.707107 0.000000 -0.707107
vn 0.707107 0.000000 -0.707107
vn 0.707107 0.000000 -0.707107
vn 0.707107 0.000000 -0.707107
vn 0.000000 1.000000 0.000000
vn 0.000000 1.000000 0.000000
vn 0.000000 1.000000 0.000000
vn 0.000000 1.000000 0.000000
vn -0.707107 0.000000 -0.707107
vn -0.707107 0.000000 -0.707107
vn -0.707107 0.000000 -0.707107
vn -0.707107 0.000000 -0.707107
vn 0.707107 0.000000 -0.707107
vn 0.707107 0.000000 -0.707107
vn 0.707107 0.000000 -0.707107
vn 0.707107 0.000000 -0.707107
vn 0.000000 1.000000 0.000000
vn 0.000000 1.000000 0.000000
vn 0.000000 1.000000 0.000000
vn 0.000000 1.000000 0.000000
vn -0.707107 0.000000 -0.707107
vn -0.707107 0.000000 -0.707107
vn -0.707107 0.000000 -0.707107
vn -0.707107 0.000000 -0.707107
vn 0.707107 0.000000 -0.707107
vn 0.707107 0.000000 -0.707107
vn 0.707107 0.000000 -0.707107
vn 0.707107 0.000000 -0.707107
vn 0.000000 1.000000 0.000000
vn 0.000000 1.000000 0.000000
vn 0.000000 1.000000 0.000000
vn 0.000000 1.000000 0.000000
vn -0.707107 0.000000 -0.707107
vn -0.707107 0.000000 -0.707107
vn -0.707107 0.000000 -0.707107
vn -0.707107 0.000000 -0.707107
vn 0.707107 0.000000 -0.707107
vn 0.707107 0.000000 -0.707107
vn 0.707107 0.000000 -0.707107
vn 0.707107 0.000000 -0.707107
vn 0.000000 1.000000 0.000000
vn 0.000000 1.000000 0.000000
vn 0.000000 1.000000 0.000000
vn 0.000000 1.000000 0.000000
vn -0.707107 0.000000 -0.707107
vn -0.707107 0.000000 -0.707107
vn -0.707107 0.000000 -0.707107
vn -0.707107 0.000000 -0.707107
vn 0.707107 0.000000 -0.707107
vn 0.707107 0.000000 -0.707107
vn 0.707107 0.000000 -0.707107
vn 0.707107 0.000000 -0.707107
vn 0.000000 1.000000 0.000000
vn 0.000000 1.000000 0.000000
vn 0.000000 1.000000 0.000000
vn 0.000000 1.000000 0.000000
vn -0.707107 0.000000 -0.707107
vn -0.707107 0.000000 -0.707107
vn -0.707107 0.000000 -0.707107
vn -0.707107 0.000000 -0.707107
vn 0.707107 0.000000 -0.707107
vn 0.707107 0.000000 -0.707107
vn 0.707107 0.000000 -0.707107
vn 0.707107 0.000000 -0.707107
vn 0.000000 1.000000 0.000000
vn 0.000000 1.000000 0.000000
vn 0.000000 1.000000 0.000000
vn 0.000000 1.000000 0.000000
vn -0.707107 0.000000 -0.707107
vn -0.707107 0.000000 -0.707107
vn -0.707107 0.000000 -0.707107
vn -0.707107 0.000000 -0.707107
vn 0.707107 0.000000 -0.707107
vn 0.707107 0.000000 -0.707107
vn 0.707107 0.000000 -0.707107
vn 0.707107 0.000000 -0.707107
vn 0.000000 1.000000 0.000000
vn 0.000000 1.000000 0.000000
vn 0.000000 1.000000 0.000000
vn 0.000000 1.000000 0.000000
vn -0.707107 0.000000 -0.707107
vn -0.707107 0.000000 -0.707107
vn -0.707107 0.000000 -0.707107
vn -0.707107 0.000000 -0.707107
vn 0.707107 0.000000 -0.707107
vn 0.707107 0.000000 -0.707107
vn 0.707107 0.000000 -0.707107
vn 0.707107 0.000000 -0.707107
vn 0.000000 1.000000 0.000000
vn 0.000000 1.000000 0.000000
vn 0.000000 1.000000 0.000000
vn 0.000000 1.000000 0.000000
vn -0.707107 0.000000 -0.707107
vn -0.707107 0.000000 -0.707107
vn -0.707107 0.000000 -0.707107
vn -0.707107 0.000000 -0.707107
vn 0.707107 0.000000 -0.707107
vn 0.707107 0.000000 -0.707107
vn 0.707107 0.000000 -0.707107
vn 0.707107 0.000000 -0.707107
vn 0.000000 1.000000 0.000000
vn 0.000000 1.000000 0.000000
vn 0.000000 1.000000 0.000000
vn 0.000000 1.000000 0.000000
vn -0.707107 0.000000 -0.707107
vn -0.707107 0.000000 -0.707107
vn -0.707107 0.000000 -0.707107
vn -0.707107 0.000000 -0.707107
vn 0.707107 0.000000 -0.707107
vn 0.707107 0.000000 -0.707107
vn 0.707107 0.000000 -0.707107
vn 0.707107 0.000000 -0.707107
vn 0.000000 1.000000 0.000000
vn 0.000000 1.000000 0.000000
vn 0.000000 1.000000 0.000000
vn 0.000000 1.000000 0.000000
vn -0.707107 0.000000 -0.707107
vn -0.707107 0.000000 -0.707107
vn -0.707107 0.000000 -0.707107
vn -0.707107 0.000000 -0.707107
vn 0.707107 0.000000 -0.707107
vn 0.707107 0.000000 -0.707107
vn 0.707107 0.000000 -0.707107
vn 0.707107 0.000000 -0.707107
vn 0.000000 1.000000 0.000000
vn 0.000000 1.000000 0.000000
vn 0.000000 1.000000 0.000000
vn 0.000000 1.000000 0.000000
vn -0.707107 0.000000 -0.707107
vn -0.707107 0.000000 -0.707107
vn -0.707107 0.000000 -0.707107
vn -0.707107 0.000000 -0.707107
vn 0.707107 0.000000 -0.707107
vn 0.707107 0.000000 -0.707107
vn 0.707107 0.000000 -0.707107
vn 0.707107 0.000000 -0.707107
vn 0.000000 1.000000 0.000000
vn 0.000000 1.000000 0.000000
vn 0.000000 1.000000 0.000000
vn 0.000000 1.000000 0.000000
vn -0.707107 0.000000 -0.707107
vn -0.707107 0.000000 -0.707107
vn -0.707107 0.000000 -0.707107
vn -0.707107 0.000000 -0.707107
s off
g stairs_shell:group2 stairs_shell:pCube85 stairs_shell:polySurface2 stairs_shell:polySurface3 stairs_shell:polySurface1
usemtl stairs_shell:initialShadingGroup
f 5/3/1 6/4/2 8/6/3 7/5/4
f 7/5/5 8/6/6 3/8/7 2/7/8
f 3/1/9 8/9/10 6/10/11 4/2/12
g stairs_shell:group2 stairs_shell:pCube90 stairs_shell:polySurface2 stairs_shell:polySurface3 stairs_shell:polySurface1
f 10/13/13 11/14/14 13/16/15 12/15/16
f 12/15/17 13/16/18 6/18/19 5/17/20
f 6/11/21 13/19/22 11/20/23 9/12/24
g stairs_shell:group2 stairs_shell:pCube121 stairs_shell:polySurface2 stairs_shell:polySurface3 stairs_shell:polySurface1
f 22/23/25 23/24/26 24/26/27 19/25/28
f 19/25/29 24/26/30 20/28/31 17/27/32
f 20/21/33 24/29/34 23/30/35 21/22/36
g stairs_shell:group2 stairs_shell:pCube126 stairs_shell:polySurface2 stairs_shell:polySurface3 stairs_shell:polySurface1
f 27/33/37 28/34/38 29/36/39 23/35/40
f 23/35/41 29/36/42 25/38/43 21/37/44
f 25/31/45 29/39/46 28/40/47 26/32/48
g stairs_shell:group2 stairs_shell:pCube149 stairs_shell:polySurface2 stairs_shell:polySurface3 stairs_shell:polySurface1
f 34/43/49 35/44/50 36/46/51 33/45/52
f 33/45/53 36/46/54 19/48/55 18/47/56
f 19/41/57 36/49/58 35/50/59 22/42/60
g stairs_shell:group2 stairs_shell:pCube154 stairs_shell:polySurface2 stairs_shell:polySurface3 stairs_shell:polySurface1
f 37/53/61 38/54/62 39/56/63 35/55/64
f 35/55/65 39/56/66 23/58/67 22/57/68
f 23/51/69 39/59/70 38/60/71 27/52/72
g stairs_shell:group2 stairs_shell:pCube158 stairs_shell:polySurface2 stairs_shell:polySurface3 stairs_shell:polySurface1
f 40/63/73 41/64/74 42/66/75 38/65/76
f 38/65/77 42/66/78 28/68/79 27/67/80
f 28/61/81 42/69/82 41/70/83 30/62/84
g stairs_shell:group2 stairs_shell:pCube161 stairs_shell:polySurface2 stairs_shell:polySurface3 stairs_shell:polySurface1
f 43/73/85 44/74/86 45/76/87 41/75/88
f 41/75/89 45/76/90 31/78/91 30/77/92
f 31/71/93 45/79/94 44/80/95 32/72/96
g stairs_shell:group2 stairs_shell:pCube170 stairs_shell:polySurface2 stairs_shell:polySurface3 stairs_shell:polySurface1
f 4/83/97 46/84/98 47/86/99 3/85/100
f 3/85/101 47/86/102 33/88/103 1/87/104
f 33/81/105 47/89/106 46/90/107 34/82/108
g stairs_shell:group2 stairs_shell:pCube175 stairs_shell:polySurface2 stairs_shell:polySurface3 stairs_shell:polySurface1
f 48/93/109 49/94/110 50/96/111 46/95/112
f 46/95/113 50/96/114 35/98/115 34/97/116
f 35/91/117 50/99/118 49/100/119 37/92/120
g stairs_shell:group2 stairs_shell:pCube179 stairs_shell:polySurface2 stairs_shell:polySurface3 stairs_shell:polySurface1
f 51/103/121 52/104/122 53/106/123 49/105/124
f 49/105/125 53/106/126 38/108/127 37/107/128
f 38/101/129 53/109/130 52/110/131 40/102/132
g stairs_shell:group2 stairs_shell:pCube182 stairs_shell:polySurface2 stairs_shell:polySurface3 stairs_shell:polySurface1
f 54/113/133 55/114/134 56/116/135 52/115/136
f 52/115/137 56/116/138 41/118/139 40/117/140
f 41/111/141 56/119/142 55/120/143 43/112/144
g stairs_shell:group2 stairs_shell:pCube190 stairs_shell:polySurface2 stairs_shell:polySurface3 stairs_shell:polySurface1
f 9/123/145 57/124/146 58/126/147 6/125/148
f 6/125/149 58/126/150 46/128/151 4/127/152
f 46/121/153 58/129/154 57/130/155 48/122/156
g stairs_shell:group2 stairs_shell:pCube194 stairs_shell:polySurface2 stairs_shell:polySurface3 stairs_shell:polySurface1
f 59/133/157 60/134/158 61/136/159 57/135/160
f 57/135/161 61/136/162 49/138/163 48/137/164
f 49/131/165 61/139/166 60/140/167 51/132/168
g stairs_shell:group2 stairs_shell:pCube197 stairs_shell:polySurface2 stairs_shell:polySurface3 stairs_shell:polySurface1
f 62/143/169 63/144/170 64/146/171 60/145/172
f 60/145/173 64/146/174 52/148/175 51/147/176
f 52/141/177 64/149/178 63/150/179 54/142/180
g stairs_shell:group2 stairs_shell:pCube204 stairs_shell:polySurface2 stairs_shell:polySurface3 stairs_shell:polySurface1
f 14/153/181 65/154/182 66/156/183 11/155/184
f 11/155/185 66/156/186 57/158/187 9/157/188
f 57/151/189 66/159/190 65/160/191 59/152/192
g stairs_shell:group2 stairs_shell:pCube207 stairs_shell:polySurface2 stairs_shell:polySurface3 stairs_shell:polySurface1
f 67/163/193 68/164/194 69/166/195 65/165/196
f 65/165/197 69/166/198 60/168/199 59/167/200
f 60/161/201 69/169/202 68/170/203 62/162/204
g stairs_shell:group2 stairs_shell:pCube213 stairs_shell:polySurface2 stairs_shell:polySurface3 stairs_shell:polySurface1
f 16/173/205 70/174/206 71/176/207 15/175/208
f 15/175/209 71/176/210 65/178/211 14/177/212
f 65/171/213 71/179/214 70/180/215 67/172/216
